<?xml version="1.0" standalone="no"?>
<!DOCTYPE svg PUBLIC "-//W3C//DTD SVG 20010904//EN"
 "http://www.w3.org/TR/2001/REC-SVG-20010904/DTD/svg10.dtd">
<svg version="1.0" xmlns="http://www.w3.org/2000/svg"
 width="700.000000pt" height="700.000000pt" viewBox="0 0 700.000000 700.000000"
 preserveAspectRatio="xMidYMid meet">
<metadata>
Created by potrace 1.11, written by Peter Selinger 2001-2013
</metadata>
<g transform="translate(0.000000,700.000000) scale(0.100000,-0.100000)"
fill="#000000" stroke="none">
<path d="M3280 6994 c-167 -15 -343 -39 -450 -60 -873 -172 -1654 -674 -2178
-1401 -217 -302 -419 -724 -517 -1078 -192 -700 -177 -1388 45 -2055 366
-1101 1258 -1955 2365 -2265 344 -96 592 -130 955 -130 275 1 438 15 670 61
699 137 1338 484 1835 995 267 275 454 538 624 879 318 639 434 1348 336 2045
-109 770 -469 1478 -1026 2020 -275 267 -538 454 -879 624 -373 186 -725 291
-1155 346 -115 15 -531 27 -625 19z m268 -1261 c103 -25 188 -47 190 -48 1 -1
-31 -138 -73 -303 -41 -166 -75 -305 -75 -309 0 -7 270 -74 295 -73 6 0 44
134 84 298 41 163 75 300 77 303 4 7 364 -79 376 -90 4 -3 -28 -146 -71 -318
l-78 -311 86 -33 c122 -45 291 -131 377 -190 84 -59 190 -166 230 -235 96
-163 109 -372 37 -583 -64 -188 -179 -308 -361 -377 l-83 -31 89 -56 c223
-142 334 -344 318 -582 -15 -235 -121 -487 -267 -635 -105 -107 -202 -159
-379 -203 -128 -32 -399 -31 -608 2 -108 17 -156 21 -160 14 -4 -6 -40 -145
-81 -310 -40 -164 -77 -302 -81 -306 -6 -6 -368 77 -378 87 -1 2 31 140 73
306 42 167 74 308 71 315 -5 14 -287 88 -297 77 -3 -4 -39 -142 -79 -307 -40
-165 -75 -303 -79 -307 -4 -5 -366 78 -379 87 -1 1 32 140 73 309 41 169 75
313 75 320 0 9 -113 42 -372 106 -205 51 -377 96 -382 101 -6 6 163 420 178
436 1 1 26 -4 56 -12 265 -72 313 -73 368 -11 26 30 48 109 247 911 166 670
216 887 212 917 -8 60 -48 112 -109 142 -29 14 -119 42 -199 62 l-146 37 50
201 c28 110 51 202 52 204 1 1 166 -38 366 -88 200 -50 374 -93 386 -95 26 -6
18 -32 110 347 37 153 69 278 70 278 2 0 88 -21 191 -47z"/>
<path d="M3390 4238 c-51 -205 -93 -377 -94 -382 -3 -21 290 -87 467 -106 302
-33 491 72 527 293 40 252 -165 417 -665 537 -70 16 -131 30 -135 30 -4 0 -49
-168 -100 -372z"/>
<path d="M3092 3047 c-56 -226 -102 -417 -102 -424 0 -11 252 -76 420 -109
117 -22 352 -30 432 -14 98 19 163 48 215 95 63 56 99 124 115 213 10 61 9 78
-6 134 -61 221 -300 362 -811 479 -71 17 -137 32 -145 34 -12 4 -35 -73 -118
-408z"/>
</g>
</svg>
